<svg xmlns="http://www.w3.org/2000/svg" viewBox="0 0 800 600" role="img" aria-label="Déroulé d&#39;un dépannage de chaudière : prise d&#39;appel, diagnostic par un Professionnel du gaz, devis avant réparation, réparation et compte rendu"><style>@media (prefers-reduced-motion: no-preference){path[marker-end="url(#an)"]{stroke-dasharray:22 8;animation:flow 1.2s linear infinite}path[marker-end="url(#ac)"]{stroke-dasharray:14 10;animation:flow 1.2s linear infinite}path[marker-end="url(#ac)"]{animation-name:flowc}@keyframes flow{to{stroke-dashoffset:-30}}@keyframes flowc{to{stroke-dashoffset:-24}}}</style>
<defs>
<marker id="an" viewBox="0 0 10 10" refX="6" refY="5" markerWidth="4" markerHeight="4" orient="auto"><path d="M0 0L10 5L0 10z" fill="#005ca9"/></marker>
<marker id="ac" viewBox="0 0 10 10" refX="6" refY="5" markerWidth="4" markerHeight="4" orient="auto"><path d="M0 0L10 5L0 10z" fill="#2db8c5"/></marker>
</defs>
<rect width="800" height="600" fill="#eaf3fa"/>
<g font-family="system-ui,-apple-system,Segoe UI,sans-serif" stroke-linecap="round" stroke-linejoin="round">
<g transform="translate(28 22)"><rect width="744" height="96" rx="22" fill="#fff"/><circle cx="54" cy="52" r="24" fill="#0b2a4a"/><text x="54" y="61.52" font-size="28" font-weight="700" fill="#fff" text-anchor="middle">1</text><text x="100" y="46" font-size="30" font-weight="800" fill="#0b2a4a">Prise d&#39;appel</text><text x="100" y="78" font-size="23" fill="#4a5a68">marque, année, code défaut</text><g transform="translate(682 52) scale(.66)"><rect x="-26" y="-44" width="52" height="88" rx="10" fill="#fff" stroke="#0b2a4a" stroke-width="5"/><path d="M-8 32h16" stroke="#0b2a4a" stroke-width="5"/><path d="M34 -30q10 12 0 24M46 -38q18 20 0 40" fill="none" stroke="#2db8c5" stroke-width="5"/></g></g>
<path d="M82 124V156" stroke="#005ca9" stroke-width="5" marker-end="url(#an)"/>
<g transform="translate(28 168)"><rect width="744" height="96" rx="22" fill="#fff"/><circle cx="54" cy="52" r="24" fill="#0b2a4a"/><text x="54" y="61.52" font-size="28" font-weight="700" fill="#fff" text-anchor="middle">2</text><text x="100" y="46" font-size="30" font-weight="800" fill="#0b2a4a">Diagnostic</text><text x="100" y="78" font-size="23" fill="#4a5a68">brûleur, sécurités, pression, fumées</text><g transform="translate(682 52) scale(.66)"><rect x="-34" y="-44" width="68" height="88" rx="14" fill="#fff" stroke="#0b2a4a" stroke-width="5"/><circle cy="-6" r="20" fill="#eaf3fa" stroke="#0b2a4a" stroke-width="4"/><path d="M0 -6l10 -12" stroke="#005ca9" stroke-width="5"/><path d="M-16 28h32" stroke="#2db8c5" stroke-width="5"/></g></g>
<path d="M82 270V302" stroke="#005ca9" stroke-width="5" marker-end="url(#an)"/>
<g transform="translate(28 314)"><rect width="744" height="96" rx="22" fill="#fff"/><circle cx="54" cy="52" r="24" fill="#0b2a4a"/><text x="54" y="61.52" font-size="28" font-weight="700" fill="#fff" text-anchor="middle">3</text><text x="100" y="46" font-size="30" font-weight="800" fill="#0b2a4a">Devis avant réparation</text><text x="100" y="78" font-size="23" fill="#4a5a68">la réparation attend votre accord</text><g transform="translate(682 52) scale(.66)"><rect x="-40" y="-44" width="80" height="88" rx="8" fill="#fff" stroke="#0b2a4a" stroke-width="5"/><path d="M-26 -26h52M-26 -8h52M-26 10h30" stroke="#c9d5df" stroke-width="5"/><path d="M8 34l30-30" stroke="#005ca9" stroke-width="7"/><path d="M4 40l2-10 8 8z" fill="#005ca9"/></g></g>
<path d="M82 416V448" stroke="#005ca9" stroke-width="5" marker-end="url(#an)"/>
<g transform="translate(28 460)"><rect width="744" height="96" rx="22" fill="#fff"/><circle cx="54" cy="52" r="24" fill="#0b2a4a"/><text x="54" y="61.52" font-size="28" font-weight="700" fill="#fff" text-anchor="middle">4</text><text x="100" y="46" font-size="30" font-weight="800" fill="#0b2a4a">Réparation</text><text x="100" y="78" font-size="23" fill="#4a5a68">pièce du magasin ou second rendez-vous</text><g transform="translate(682 52) scale(.66)"><path d="M-34 34L14 -14" stroke="#0b2a4a" stroke-width="14"/><circle cx="22" cy="-22" r="22" fill="#fff" stroke="#0b2a4a" stroke-width="6"/><path d="M22 -22l14 -14" stroke="#fff" stroke-width="14"/><path d="M-34 34L14 -14" stroke="#fff" stroke-width="4"/></g></g>
</g>
</svg>
