<svg xmlns="http://www.w3.org/2000/svg" viewBox="0 0 800 600" role="img" aria-label="Trois formules pour votre pompe à chaleur, climatisation ou chaudière : le forfait entretien, le contrat d&#39;entretien et le dépannage avec devis avant réparation"><style>@media (prefers-reduced-motion: no-preference){path[marker-end="url(#an)"]{stroke-dasharray:22 8;animation:flow 1.2s linear infinite}path[marker-end="url(#ac)"]{stroke-dasharray:14 10;animation:flow 1.2s linear infinite}path[marker-end="url(#ac)"]{animation-name:flowc}@keyframes flow{to{stroke-dashoffset:-30}}@keyframes flowc{to{stroke-dashoffset:-24}}}</style>
<defs>
<marker id="an" viewBox="0 0 10 10" refX="6" refY="5" markerWidth="4" markerHeight="4" orient="auto"><path d="M0 0L10 5L0 10z" fill="#005ca9"/></marker>
<marker id="ac" viewBox="0 0 10 10" refX="6" refY="5" markerWidth="4" markerHeight="4" orient="auto"><path d="M0 0L10 5L0 10z" fill="#2db8c5"/></marker>
</defs>
<rect width="800" height="600" fill="#eaf3fa"/>
<g font-family="system-ui,-apple-system,Segoe UI,sans-serif" stroke-linecap="round" stroke-linejoin="round">
<g transform="translate(28 28)"><rect width="744" height="132" rx="22" fill="#fff"/><g transform="translate(78 66) scale(.72)"><rect x="-46" y="-40" width="92" height="80" rx="10" fill="#fff" stroke="#0b2a4a" stroke-width="5"/><circle r="26" fill="#f4f8fb" stroke="#0b2a4a" stroke-width="4"/><path d="M0 0v-18M0 0l16 9M0 0l-16 9" stroke="#0b2a4a" stroke-width="4"/></g><text x="150" y="58" font-size="30" font-weight="800" fill="#0b2a4a">Votre équipement</text><text x="150" y="94" font-size="24" fill="#4a5a68">pompe à chaleur, climatisation, chaudière</text></g>
<path d="M144 168V226" stroke="#005ca9" stroke-width="5" marker-end="url(#an)"/>
<g transform="translate(28 240)"><rect width="232" height="332" rx="22" fill="#fff"/><circle cx="48" cy="50" r="24" fill="#0b2a4a"/><text x="48" y="59.52" font-size="28" font-weight="700" fill="#fff" text-anchor="middle">1</text><g transform="translate(116 150)"><rect x="-42" y="-36" width="84" height="80" rx="10" fill="#fff" stroke="#0b2a4a" stroke-width="5"/><path d="M-42 -12h84" stroke="#0b2a4a" stroke-width="4"/><path d="M-22 -46v18M22 -46v18" stroke="#0b2a4a" stroke-width="6"/><path d="M-22 8h12M-4 8h12M14 8h12M-22 26h12M-4 26h12" stroke="#2db8c5" stroke-width="6"/></g><text x="24" y="250" font-size="30" font-weight="800" fill="#0b2a4a">Forfait</text><text x="24" y="284" font-size="21" fill="#4a5a68">une visite quand</text><text x="24" y="310" font-size="21" fill="#4a5a68">vous le souhaitez</text></g>
<path d="M400 168V226" stroke="#005ca9" stroke-width="5" marker-end="url(#an)"/>
<g transform="translate(284 240)"><rect width="232" height="332" rx="22" fill="#fff"/><circle cx="48" cy="50" r="24" fill="#0b2a4a"/><text x="48" y="59.52" font-size="28" font-weight="700" fill="#fff" text-anchor="middle">2</text><g transform="translate(116 150)"><path d="M-34 -46H18L36 -28V46H-34Z" fill="#fff" stroke="#0b2a4a" stroke-width="5"/><path d="M-20 -22h36M-20 -6h40M-20 10h28" stroke="#c9d5df" stroke-width="5"/><circle cx="26" cy="34" r="18" fill="#117a85"/><path d="M17 34l6 6 12-12" fill="none" stroke="#fff" stroke-width="5"/></g><text x="24" y="250" font-size="30" font-weight="800" fill="#0b2a4a">Contrat</text><text x="24" y="284" font-size="21" fill="#4a5a68">visites programmées,</text><text x="24" y="310" font-size="21" fill="#4a5a68">historique suivi</text></g>
<path d="M656 168V226" stroke="#005ca9" stroke-width="5" marker-end="url(#an)"/>
<g transform="translate(540 240)"><rect width="232" height="332" rx="22" fill="#fff"/><circle cx="48" cy="50" r="24" fill="#0b2a4a"/><text x="48" y="59.52" font-size="28" font-weight="700" fill="#fff" text-anchor="middle">3</text><g transform="translate(116 150)"><path d="M-34 34L14 -14" stroke="#0b2a4a" stroke-width="14"/><circle cx="22" cy="-22" r="22" fill="#fff" stroke="#0b2a4a" stroke-width="6"/><path d="M22 -22l14 -14" stroke="#fff" stroke-width="14"/><path d="M-34 34L14 -14" stroke="#fff" stroke-width="4"/></g><text x="24" y="250" font-size="30" font-weight="800" fill="#0b2a4a">Dépannage</text><text x="24" y="284" font-size="21" fill="#4a5a68">diagnostic, devis</text><text x="24" y="310" font-size="21" fill="#4a5a68">avant réparation</text></g>
</g>
</svg>
