<svg xmlns="http://www.w3.org/2000/svg" viewBox="0 0 800 600" role="img" aria-label="Illustration : grille de soufflage de climatisation gainable intégrée au plafond d'un séjour">
<rect width="800" height="600" fill="#f4f8fb"/>
<rect width="800" height="90" fill="#fff"/>
<rect y="88" width="800" height="4" fill="#e1e8ee"/>
<rect x="230" y="70" width="340" height="30" rx="6" fill="#fff" stroke="#0b2a4a" stroke-width="5"/>
<g stroke="#0b2a4a" stroke-width="3"><path d="M250 78v14M270 78v14M290 78v14M310 78v14M330 78v14M350 78v14M370 78v14M390 78v14M410 78v14M430 78v14M450 78v14M470 78v14M490 78v14M510 78v14M530 78v14M550 78v14"/></g>
<g fill="none" stroke="#2db8c5" stroke-width="6" stroke-linecap="round" opacity=".8"><path d="M290 120c-10 40 10 70-10 110M400 125c0 45 0 75 0 115M510 120c10 40-10 70 10 110"/></g>
<rect x="0" y="470" width="800" height="130" fill="#e8dccb"/>
<g stroke="#d6c7b2" stroke-width="3"><path d="M0 520h800M0 560h800M160 470v50M420 520v40M640 470v50M280 560v40"/></g>
<rect x="60" y="150" width="200" height="230" rx="8" fill="#c9e6f0" stroke="#0b2a4a" stroke-width="6"/>
<path d="M160 150v230" stroke="#0b2a4a" stroke-width="5"/>
<rect x="440" y="360" width="300" height="100" rx="20" fill="#005ca9"/>
<rect x="420" y="320" width="340" height="60" rx="22" fill="#0b2a4a" opacity=".9"/>
<rect x="460" y="330" width="120" height="44" rx="14" fill="#96dce2"/>
<rect x="600" y="330" width="120" height="44" rx="14" fill="#96dce2"/>
<rect x="450" y="458" width="12" height="18" fill="#0b2a4a"/><rect x="718" y="458" width="12" height="18" fill="#0b2a4a"/>
<path d="M300 470v-150" stroke="#0b2a4a" stroke-width="6"/>
<path d="M270 320h60l-12-50h-36z" fill="#2db8c5"/>
<rect x="276" y="462" width="48" height="10" rx="4" fill="#0b2a4a"/>
</svg>
